<?xml version="1.0" standalone="no"?>
<!DOCTYPE svg PUBLIC "-//W3C//DTD SVG 20010904//EN"
 "http://www.w3.org/TR/2001/REC-SVG-20010904/DTD/svg10.dtd">
<svg version="1.0" xmlns="http://www.w3.org/2000/svg"
 width="250.000000pt" height="250.000000pt" viewBox="0 0 250.000000 250.000000"
 preserveAspectRatio="xMidYMid meet">

<g transform="translate(0.000000,250.000000) scale(0.100000,-0.100000)"
fill="#000000" stroke="none">
<path d="M1128 2459 c-159 -13 -292 -51 -433 -122 -382 -191 -631 -559 -665
-981 -48 -612 362 -1155 970 -1282 59 -13 129 -18 230 -18 213 0 368 37 554
132 435 223 697 701 647 1181 -23 224 -77 376 -199 561 -240 362 -666 567
-1104 529z m352 -64 c383 -85 705 -367 844 -739 88 -235 89 -558 2 -789 -119
-316 -359 -567 -659 -687 -225 -90 -490 -108 -717 -50 -638 165 -1016 818
-836 1445 81 286 272 532 532 688 86 52 245 113 339 131 44 8 89 17 100 20 44
11 323 -3 395 -19z"/>
<path d="M1070 2369 c-486 -77 -867 -452 -945 -930 -45 -280 15 -560 173 -798
211 -320 551 -501 939 -501 310 0 588 121 809 352 190 199 290 437 301 715 7
156 -7 260 -49 393 -89 278 -282 508 -548 653 -185 101 -468 149 -680 116z
m261 -39 c622 -63 1063 -630 964 -1239 -88 -541 -569 -936 -1108 -908 -134 7
-234 28 -343 71 -188 75 -348 195 -466 351 -425 560 -218 1357 427 1642 120
53 229 77 406 92 9 0 63 -4 120 -9z"/>
<path d="M845 1674 c-77 -8 -186 -13 -242 -12 -115 3 -122 -1 -99 -57 17 -41
50 -50 148 -40 l70 7 -7 -33 c-4 -18 -34 -106 -66 -196 -76 -212 -129 -372
-129 -390 0 -22 67 -85 86 -81 13 2 23 31 41 113 28 126 125 425 173 532 l32
71 74 7 c40 4 89 4 109 1 40 -8 45 5 20 53 -12 24 -46 44 -65 40 -3 -1 -68 -8
-145 -15z"/>
<path d="M1111 1415 c-28 -310 -26 -489 5 -512 26 -19 77 -31 107 -26 20 4 34
24 75 111 51 108 124 290 157 392 19 58 41 94 31 50 -11 -49 -25 -396 -18
-460 l7 -64 45 -17 c78 -29 93 -20 135 84 95 231 277 568 339 626 l26 24 -32
24 c-18 12 -39 23 -48 23 -28 0 -156 -244 -275 -525 -37 -88 -71 -164 -76
-170 -25 -26 4 399 36 545 25 111 25 113 -17 133 -20 10 -52 20 -70 23 l-33 5
-33 -108 c-62 -199 -224 -591 -252 -608 -14 -8 -13 209 1 351 10 101 38 255
54 296 6 14 -4 23 -46 43 -100 46 -92 62 -118 -240z"/>
</g>
</svg>
